<?xml version="1.0" encoding="UTF-8"?>
<svg width="71.0000001px" height="70.8813292px" viewBox="0 0 71.0000001 70.8813292" version="1.1" xmlns="http://www.w3.org/2000/svg" xmlns:xlink="http://www.w3.org/1999/xlink">
    <title>Group 3</title>
    <defs>
        <filter x="-25.5%" y="-21.6%" width="151.0%" height="151.1%" filterUnits="objectBoundingBox" id="filter-1">
            <feOffset dx="0" dy="2" in="SourceAlpha" result="shadowOffsetOuter1"></feOffset>
            <feGaussianBlur stdDeviation="2" in="shadowOffsetOuter1" result="shadowBlurOuter1"></feGaussianBlur>
            <feColorMatrix values="0 0 0 0 0   0 0 0 0 0   0 0 0 0 0  0 0 0 0.5 0" type="matrix" in="shadowBlurOuter1" result="shadowMatrixOuter1"></feColorMatrix>
            <feMerge>
                <feMergeNode in="shadowMatrixOuter1"></feMergeNode>
                <feMergeNode in="SourceGraphic"></feMergeNode>
            </feMerge>
        </filter>
    </defs>
    <g id="Home-Page" stroke="none" stroke-width="1" fill="none" fill-rule="evenodd">
        <g id="Dark-Mode" transform="translate(-369.500000, -283.239492)" stroke="#71A5DE" stroke-width="6">
            <g id="Group-3" filter="url(#filter-1)" transform="translate(379.500000, 291.240216)">
                <path d="M48.3190467,-2.95318658 C49.6868528,-3.14118853 51.0013965,-2.75700855 52.0210047,-1.98387962 C53.1015172,-1.16456942 53.8508082,0.0915359437 53.9812933,1.56637457 L54,48.8792172 C54.0001699,50.259929 53.4406798,51.5099979 52.5359691,52.4149313 C51.6312585,53.3198647 50.3813274,53.8796626 49.0006155,53.8798326 C40.7031299,52.7401727 33.1015959,52.1942995 25.5,52.1942995 C17.9025427,52.1942995 10.3051002,52.7393608 2.70513853,53.8295316 C1.33800197,54.0244597 0.0214170775,53.6466328 -1.00203089,52.8782726 C-2.08855506,52.0625576 -2.84469035,50.8066459 -2.97998822,49.3286053 L-2.99999933,2.00174058 C-2.99908564,0.621029348 -2.43861483,-0.628599936 -1.53319464,-1.5328231 C-0.627774328,-2.43704639 0.622595405,-2.99586349 2.00330681,-2.99495034 C10.1895091,-1.90687275 17.7628393,-1.38548205 25.39375,-1.38548205 C33.0361146,-1.38548205 40.6785376,-1.90822719 48.3190467,-2.95318658 Z" id="Combined-Shape" stroke-linejoin="round"></path>
                <g id="Group" transform="translate(9.500000, 9.035444)" stroke-linecap="round">
                    <line x1="15.75" y1="0.2525" x2="15.75" y2="32.0675" id="Line-2"></line>
                    <line x1="31.5" y1="16.16" x2="15.75" y2="32.0675" id="Line-2"></line>
                    <line x1="16" y1="16.16" x2="0.25" y2="32.0675" id="Line-2" transform="translate(8.000000, 24.240000) scale(-1, 1) translate(-8.000000, -24.240000) "></line>
                </g>
            </g>
        </g>
    </g>
</svg>