<?xml version="1.0" encoding="UTF-8"?>
<svg width="81.9504199px" height="82.4443824px" viewBox="0 0 81.9504199 82.4443824" version="1.1" xmlns="http://www.w3.org/2000/svg" xmlns:xlink="http://www.w3.org/1999/xlink">
    <title>Monster Tycoon Icon</title>
    <defs>
        <filter x="-9.6%" y="-6.0%" width="118.8%" height="117.9%" filterUnits="objectBoundingBox" id="filter-1">
            <feOffset dx="0" dy="2" in="SourceAlpha" result="shadowOffsetOuter1"></feOffset>
            <feGaussianBlur stdDeviation="2" in="shadowOffsetOuter1" result="shadowBlurOuter1"></feGaussianBlur>
            <feColorMatrix values="0 0 0 0 0   0 0 0 0 0   0 0 0 0 0  0 0 0 0.5 0" type="matrix" in="shadowBlurOuter1" result="shadowMatrixOuter1"></feColorMatrix>
            <feMerge>
                <feMergeNode in="shadowMatrixOuter1"></feMergeNode>
                <feMergeNode in="SourceGraphic"></feMergeNode>
            </feMerge>
        </filter>
    </defs>
    <g id="Home-Page" stroke="none" stroke-width="1" fill="none" fill-rule="evenodd">
        <g id="Dark-Mode" transform="translate(-363.891498, -503.542000)" stroke="#000000" stroke-width="1.30663728">
            <g id="Monster-Tycoon-Icon" transform="translate(367.990389, 505.005613)">
                <g id="Group" filter="url(#filter-1)" transform="translate(0.000000, -0.000000)">
                    <path d="M14.2382406,62.6467524 C14.4167878,62.6480539 14.5782718,62.7209151 14.6954444,62.8380876 C14.812617,62.9552602 14.8854781,63.1167442 14.8867796,63.2952915 L14.9348912,69.895432 C14.9362062,70.0758362 14.8642735,70.2396945 14.7469111,70.3587806 C14.6295486,70.4778667 14.4667563,70.5521805 14.2958689,70.5534955 L2.41175943,70.4670054 C2.2332122,70.4657039 2.07172819,70.3928428 1.95455561,70.2756702 C1.83738303,70.1584976 1.76452188,69.9970136 1.76322037,69.8184664 L1.71510882,63.2183258 C1.71379377,63.0379216 1.78572645,62.8740633 1.90308894,62.7549772 Z" id="Rectangle" fill="#633E2C" transform="translate(8.325000, 66.556879) rotate(-315.000000) translate(-8.325000, -66.556879) "></path>
                    <path d="M9.88633299,56.9496137 L17.793215,57.0072507 L17.850852,64.9141327 L9.94397,64.8564957 L9.88633299,56.9496137 Z" id="Rectangle" fill="#D8D8D8" transform="translate(13.868592, 60.931873) rotate(-315.000000) translate(-13.868592, -60.931873) "></path>
                    <path d="M15.4299255,51.324608 L23.3368075,51.382245 L23.3944445,59.289127 L15.4875625,59.23149 L15.4299255,51.324608 Z" id="Rectangle" fill="#AF6E4D" transform="translate(19.412185, 55.306868) rotate(-315.000000) translate(-19.412185, -55.306868) "></path>
                    <path d="M9.88633299,56.9496137 L17.793215,57.0072507 L17.850852,64.9141327 L9.94397,64.8564957 L9.88633299,56.9496137 Z" id="Rectangle" fill="#AF6E4D" transform="translate(13.868592, 60.931873) rotate(-315.000000) translate(-13.868592, -60.931873) "></path>
                    <path d="M20.973518,45.6996023 L28.8804,45.7572394 L28.938037,53.6641214 L21.031155,53.6064843 L20.973518,45.6996023 Z" id="Rectangle" fill="#AF6E4D" transform="translate(24.955777, 49.681862) rotate(-315.000000) translate(-24.955777, -49.681862) "></path>
                    <path d="M39.2412243,40.6394667 C39.4197715,40.6407682 39.5812555,40.7136294 39.6984281,40.8308019 C39.8156007,40.9479745 39.8884619,41.1094585 39.8897634,41.2880058 L39.9378749,47.8881463 C39.93919,48.0685505 39.8672573,48.2324089 39.7498948,48.3514949 C39.6325323,48.470581 39.46974,48.5448948 39.2988554,48.5462098 L20.8335836,48.4117466 C20.6550363,48.410445 20.4935523,48.3375839 20.3763798,48.2204113 C20.2592072,48.1032387 20.186346,47.9417547 20.1850445,47.7632075 L20.136933,41.1630669 C20.1356179,40.9826628 20.2075506,40.8188044 20.3249131,40.6997183 Z" id="Rectangle" fill="#DAA520" transform="translate(30.037404, 44.525607) rotate(-315.000000) translate(-30.037404, -44.525607) "></path>
                    <path d="M68.9623599,16.57922 C69.5848665,16.5746823 70.1725105,16.866141 70.5456037,17.3644748 L74.4572115,22.5891375 C74.7187581,22.9384804 74.8490454,23.3532501 74.8482062,23.7677543 C74.8473671,24.1822586 74.7154016,24.5964973 74.4524427,24.9447785 L70.4180074,30.2882669 C70.0506401,30.7748339 69.4777666,31.0627347 68.8681057,31.0671788 L25.3035491,31.3847415 L25.4091593,16.8966999 Z" id="Rectangle" fill="#F2F3F4" transform="translate(50.401576, 23.979586) rotate(-45.000000) translate(-50.401576, -23.979586) "></path>
                </g>
            </g>
        </g>
    </g>
</svg>