<?xml version="1.0" encoding="UTF-8"?>
<svg width="84px" height="45.7473688px" viewBox="0 0 84 45.7473688" version="1.1" xmlns="http://www.w3.org/2000/svg" xmlns:xlink="http://www.w3.org/1999/xlink">
    <defs>
        <filter x="-9.2%" y="-13.2%" width="118.4%" height="137.1%" filterUnits="objectBoundingBox" id="filter-1">
            <feOffset dx="0" dy="2" in="SourceAlpha" result="shadowOffsetOuter1"></feOffset>
            <feGaussianBlur stdDeviation="2" in="shadowOffsetOuter1" result="shadowBlurOuter1"></feGaussianBlur>
            <feColorMatrix values="0 0 0 0 0   0 0 0 0 0   0 0 0 0 0  0 0 0 0.5 0" type="matrix" in="shadowBlurOuter1" result="shadowMatrixOuter1"></feColorMatrix>
            <feMerge>
                <feMergeNode in="shadowMatrixOuter1"></feMergeNode>
                <feMergeNode in="SourceGraphic"></feMergeNode>
            </feMerge>
        </filter>
        <path d="M0.752329921,0.525002525 C-0.25077664,1.22392028 -0.25077664,2.35925452 0.752329921,3.05817228 L0.752329921,3.05817228 C1.75478512,3.75839277 3.38190212,3.75839277 4.38500868,3.05817228 L4.38500868,3.05817228 C5.38876661,2.35925452 5.38876661,1.22392028 4.38500868,0.525002525 L4.38500868,0.525002525 C3.8834554,0.174566596 3.22557383,-1.15706182e-15 2.56834362,-1.15706182e-15 L2.56834362,-1.15706182e-15 C1.91111341,-1.15706182e-15 1.25323183,0.174566596 0.752329921,0.525002525 L0.752329921,0.525002525 Z" id="path-2"></path>
        <path d="M0.564735967,0.39342621 C-0.188245322,0.918428735 -0.188245322,1.76976658 0.564735967,2.29411773 L0.564735967,2.29411773 C1.31641452,2.81846889 2.53642659,2.81846889 3.28875651,2.29411773 L3.28875651,2.29411773 C4.0417378,1.76976658 4.0417378,0.918428735 3.28875651,0.39342621 L3.28875651,0.39342621 C2.91291724,0.130924947 2.41983174,-2.31412364e-15 1.92674624,-2.31412364e-15 L1.92674624,-2.31412364e-15 C1.43366074,-2.31412364e-15 0.940575244,0.130924947 0.564735967,0.39342621 L0.564735967,0.39342621 Z" id="path-4"></path>
        <path d="M0.940412402,0.655927473 C-0.313470801,1.53071456 -0.313470801,2.94874247 0.940412402,3.82352956 L0.940412402,3.82352956 C2.1942956,4.69831664 4.22786618,4.69831664 5.48240075,3.82352956 L5.48240075,3.82352956 C6.73628395,2.94874247 6.73628395,1.53071456 5.48240075,0.655927473 L5.48240075,0.655927473 C4.85513346,0.218859613 4.03310718,0 3.21108089,0 L3.21108089,0 C2.38970597,0 1.56767969,0.218859613 0.940412402,0.655927473 L0.940412402,0.655927473 Z" id="path-6"></path>
        <path d="M1.12849488,0.787503788 C-0.376164961,1.83685747 -0.376164961,3.53888179 1.12849488,4.58888684 L1.12849488,4.58888684 C2.63380609,5.63824052 5.07383024,5.63824052 6.57783871,4.58888684 L6.57783871,4.58888684 C8.08249855,3.53888179 8.08249855,1.83685747 6.57783871,0.787503788 L6.57783871,0.787503788 C5.82550879,0.262501263 4.83933779,1.60137275e-13 3.8531668,1.60137275e-13 L3.8531668,1.60137275e-13 C2.86764717,1.60137275e-13 1.88147617,0.262501263 1.12849488,0.787503788 L1.12849488,0.787503788 Z" id="path-8"></path>
        <path d="M1.12849488,0.78685242 C-0.376164961,1.83685747 -0.376164961,3.53823042 1.12849488,4.5875841 L1.12849488,4.5875841 C2.63380609,5.63758915 5.07317887,5.63758915 6.57849008,4.5875841 L6.57849008,4.5875841 C8.08314992,3.53823042 8.08314992,1.83685747 6.57849008,0.78685242 L6.57849008,0.78685242 C5.82616016,0.261849895 4.83998916,2.40664838e-13 3.8531668,2.40664838e-13 L3.8531668,2.40664838e-13 C2.8669958,2.40664838e-13 1.8808248,0.261849895 1.12849488,0.78685242 L1.12849488,0.78685242 Z" id="path-10"></path>
    </defs>
    <g id="Logo" stroke="none" stroke-width="1" fill="none" fill-rule="evenodd">
        <g id="Swift-Todo" transform="translate(-287.372000, -298.220858)">
            <g id="SwiftLogo" filter="url(#filter-1)" transform="translate(291.372000, 300.220216)">
                <g id="Group-28" transform="translate(49.835001, 9.793001) rotate(-10.000000) translate(-49.835001, -9.793001) translate(36.156438, 2.260827)">
                    <g id="Group-3" transform="translate(2.991081, 5.964576)">
                        <mask id="mask-3" fill="white">
                            <use xlink:href="#path-2"></use>
                        </mask>
                        <g id="Clip-2"></g>
                        <polygon id="Fill-1" fill="#85D6F7" mask="url(#mask-3)" points="-0.000651367897 3.58382617 5.13733861 3.58382617 5.13733861 0 -0.000651367897 0"></polygon>
                    </g>
                    <g id="Group-12" transform="translate(-0.000000, 1.344423)">
                        <mask id="mask-5" fill="white">
                            <use xlink:href="#path-4"></use>
                        </mask>
                        <g id="Clip-11"></g>
                        <polygon id="Fill-10" fill="#85D6F7" mask="url(#mask-5)" points="0 2.68754394 3.85349248 2.68754394 3.85349248 -2.31412364e-15 0 -2.31412364e-15"></polygon>
                    </g>
                    <g id="Group-21" transform="translate(7.687607, 10.584728)">
                        <mask id="mask-7" fill="white">
                            <use xlink:href="#path-6"></use>
                        </mask>
                        <g id="Clip-20"></g>
                        <polygon id="Fill-19" fill="#85D6F7" mask="url(#mask-7)" points="0.000488525923 4.47945703 6.42297599 4.47945703 6.42297599 0 0.000488525923 0"></polygon>
                    </g>
                    <g id="Group-24" transform="translate(19.650792, 0.000000)">
                        <mask id="mask-9" fill="white">
                            <use xlink:href="#path-8"></use>
                        </mask>
                        <g id="Clip-23"></g>
                        <polygon id="Fill-22" fill="#85D6F7" mask="url(#mask-9)" points="-0.000325683949 5.37639062 7.70665928 5.37639062 7.70665928 0.000651367898 -0.000325683949 0.000651367898"></polygon>
                    </g>
                    <g id="Group-27" transform="translate(13.027032, 5.068945)">
                        <mask id="mask-11" fill="white">
                            <use xlink:href="#path-10"></use>
                        </mask>
                        <g id="Clip-26"></g>
                        <polygon id="Fill-25" fill="#85D6F7" mask="url(#mask-11)" points="0.000325683949 5.37508789 7.70665928 5.37508789 7.70665928 -0.000651367897 0.000325683949 -0.000651367897"></polygon>
                    </g>
                </g>
                <g id="Swift-Todo" transform="translate(0.000000, 13.569174)" fill="#85D6F7" fill-rule="nonzero">
                    <path d="M8.02678275,24.1788364 C12.6393103,24.1788364 16.0863949,21.4375834 16.0863949,17.3174965 C16.0863949,13.2794831 13.4272153,11.7857465 11.0142561,10.6038889 C8.99524938,9.61900755 7.18963363,8.78185843 7.18963363,6.86133986 C7.18963363,5.36760319 8.45356466,4.34989249 10.3904979,4.34989249 C11.1291589,4.34989249 11.7857465,4.49762469 12.3930899,4.69460096 C12.5244074,5.90928792 13.8211678,6.68077828 15.0358548,6.68077828 C16.447518,6.68077828 17.2518378,5.67948228 17.2518378,4.36630718 C17.2518378,3.79179308 17.0712762,3.1844496 16.660909,2.67559425 C15.4790514,1.16544289 12.91836,0.311879085 9.9801307,0.311879085 C6.221167,0.311879085 2.11749484,2.67559425 2.11749484,7.27170708 C2.11749484,11.4738674 4.90799191,13.1481656 7.40302458,14.4285113 C9.29071378,15.396978 10.9978414,16.2177124 10.9978414,17.7935225 C10.9978414,19.2544298 9.66825162,20.0587495 7.97753869,20.0587495 C6.43455795,20.0587495 5.36760319,19.2872592 4.51403938,17.4652287 C3.93952528,16.2505418 3.15162022,15.6103689 2.05183608,15.6103689 C0.705831612,15.6103689 0,16.5624209 0,17.8099372 C0,18.2038897 0.0656587546,18.6306716 0.213390953,19.0738682 C1.31317509,22.3075619 4.53045407,24.1788364 8.02678275,24.1788364 Z" id="Path"></path>
                    <path d="M33.8963291,23.8177132 C34.848381,23.8177132 36.0466533,23.5386635 36.9822906,21.5853156 C39.8712758,17.7606931 42.3498938,12.8691159 42.3498938,9.83239851 C42.3498938,8.19092964 41.4306712,7.28812176 40.1667402,7.28812176 C38.804321,7.28812176 37.9671719,8.04319744 37.3105843,10.4725714 C36.6375821,12.9511894 35.6691155,15.3313192 34.3723551,17.6950344 C33.5187913,15.4954661 32.7801303,12.9511894 32.369763,10.8501092 C32.7144715,9.02807876 31.7624196,7.94470931 30.1866095,7.94470931 C28.9226784,7.94470931 28.1511881,8.74902905 27.6915768,9.93088664 C26.7066955,12.4587487 25.6889848,14.8881226 24.5563712,17.136935 C24.3758097,14.6090729 24.1788334,12.2125284 23.8669543,10.6531329 C23.4565871,8.56846748 22.5866086,7.3866099 20.7809929,7.3866099 C18.9753771,7.3866099 18.1218133,8.86393188 18.7127421,10.7844504 C19.3857443,12.9511894 19.7468675,16.9892028 20.5347725,20.3542139 C21.1257013,22.8656613 22.2090708,23.4894195 23.4565871,23.4894195 C24.7041034,23.4894195 25.6069113,22.7671732 26.4112311,21.7002184 C27.4617711,20.3049699 28.4302378,18.5485982 29.2509722,16.5624209 C29.6449247,18.3352072 30.1537801,19.7961145 30.843197,21.2570218 C31.6311021,22.9149054 32.5995687,23.8177132 33.8963291,23.8177132 Z" id="Path"></path>
                    <path d="M46.4699765,23.7028104 C47.9472985,23.7028104 49.0470826,22.4881235 48.6695448,20.4855314 C48.7187889,18.9589654 48.9485945,17.1041056 49.1784002,15.2820751 C49.4574499,13.0496775 49.7857436,10.8993533 49.8021583,9.58617818 C49.818573,8.24017371 49.030668,7.0911455 47.339955,7.0911455 C46.0596093,7.0911455 45.1896308,7.73131836 44.9926546,9.701081 C44.8449224,11.1127442 44.598702,13.0825069 44.3688964,15.0850989 C44.1226761,17.2682525 43.9256998,19.4842354 43.9256998,20.9943868 C43.9256998,22.9641494 45.1239721,23.7028104 46.4699765,23.7028104 Z" id="Shape"></path>
                    <path d="M70.2712737,24.1624217 C72.1753775,24.1624217 73.7183583,23.4565901 74.5719221,22.2419031 C74.8838012,21.7987065 75.0643627,21.2077777 75.0643627,20.666093 C75.0643627,19.6812117 74.522678,18.9589654 73.2423323,19.2380151 C72.3395244,19.4349914 71.256155,19.8617733 70.6816409,19.8617733 C70.0086386,19.8617733 69.5982714,19.4349914 69.4997833,18.3516219 C69.3356364,16.6444943 69.5818567,14.2643644 69.9429799,12.0155521 C71.2233256,11.966308 72.5365007,11.8842346 73.784017,11.7693318 C75.3105831,11.6380143 76,10.7516211 76,9.79956913 C76,8.73261437 75.1792656,7.87905056 73.4721379,7.84622118 L70.7472996,7.79697711 L70.9278612,6.99265737 C71.5023753,4.49762469 70.2712737,3.52915806 68.9416839,3.52915806 C67.56285,3.52915806 66.774945,4.46479531 66.3974071,5.81079978 C66.2168456,6.43455795 66.036284,7.10756019 65.8557224,7.8133918 L63.9023745,7.84622118 C62.55637,7.87905056 61.2103655,7.91187993 59.9300198,7.97753869 C60.2747283,4.9244066 61.2103655,4.26781905 62.4086378,4.26781905 C62.9995666,4.26781905 63.5084219,4.49762469 63.9680332,4.66177158 C64.8380117,4.95723597 65.6587461,4.6289422 66.036284,3.89028121 C66.3317484,3.29935242 66.3153337,2.47861799 65.8721371,1.75637169 C65.3140377,0.85356381 63.8695451,0 61.9326118,0 C58.6825035,0 56.597838,1.70712762 55.596542,5.40043257 C55.3667364,6.25399638 55.1697601,7.2388777 54.9891985,8.30583246 C54.5788313,8.33866184 54.1684641,8.3879059 53.8073409,8.43714997 C52.2643602,8.63412623 51.4764551,9.33995785 51.4764551,10.7516211 C51.4764551,11.966308 52.2315308,12.967604 54.381855,12.91836 C54.0863906,15.8073452 53.9222438,18.663501 53.9222438,20.5511902 C53.9222438,22.7179291 54.9235398,23.620737 56.2695442,23.620737 C57.7304515,23.620737 58.60043,22.7179291 58.7645769,20.666093 C58.9287238,18.6470863 59.0272119,16.0207361 59.3719204,12.5900662 C60.9969746,12.4587487 62.819005,12.3438459 64.9200852,12.2289431 C64.5097179,14.5926582 64.296327,16.9727881 64.4933033,18.9589654 C64.8544264,22.6522703 67.2673856,24.1624217 70.2712737,24.1624217 Z" id="Path"></path>
                </g>
            </g>
        </g>
    </g>
</svg>
